<?xml version="1.0" encoding="utf-8"?>
<!-- Generator: Adobe Illustrator 16.0.0, SVG Export Plug-In . SVG Version: 6.00 Build 0)  -->
<!DOCTYPE svg PUBLIC "-//W3C//DTD SVG 1.1//EN" "http://www.w3.org/Graphics/SVG/1.1/DTD/svg11.dtd">
<svg version="1.1" id="Layer_1" xmlns="http://www.w3.org/2000/svg" xmlns:xlink="http://www.w3.org/1999/xlink" x="0px" y="0px"
	 width="1200px" height="1158.025px" viewBox="0 0 1200 1158.025" style="enable-background:new 0 0 1200 1158.025;"
	 xml:space="preserve">
<path style="fill:none;stroke:#000000;stroke-width:40;stroke-linecap:round;stroke-miterlimit:10;" d="M-61,839.119"/>
<g>
	<path style="fill:none;stroke:#000000;stroke-width:40;stroke-linecap:round;stroke-miterlimit:10;" d="M92.854,722.008"/>
	<path style="fill:none;stroke:#000000;stroke-width:40;stroke-linecap:round;stroke-miterlimit:10;" d="M78.592,667.126"/>
	<path style="fill:none;stroke:#000000;stroke-width:40;stroke-linecap:round;stroke-miterlimit:10;" d="M101.39,747.009"/>
	<path style="fill:none;stroke:#000000;stroke-width:40;stroke-linecap:round;stroke-miterlimit:10;" d="M78.592,667.126"/>
	<path style="fill:#8DC63F;" d="M659.52,130.351"/>
	<line style="fill:#C0DFAB;" x1="494.033" y1="157.996" x2="593.222" y2="135.368"/>
	<path style="fill:#C0DFAB;" d="M806.388,163.981"/>
	<path style="fill:none;stroke:#00A651;stroke-width:40;stroke-miterlimit:10;" d="M806.388,163.981"/>
	<path style="fill:none;stroke:#000000;stroke-width:40;stroke-linecap:round;stroke-miterlimit:10;" d="M81.979,310.08"/>
	<path style="fill:none;stroke:#000000;stroke-width:40;stroke-miterlimit:10;" d="M229.879,337.829"/>
	<path style="fill:none;stroke:#000000;stroke-width:40;stroke-miterlimit:10;" d="M253.067,298.359"/>
	<path style="fill:none;stroke:#000000;stroke-width:40;stroke-miterlimit:10;" d="M220.481,356.973"/>
	<path style="fill:none;stroke:#000000;stroke-width:40;stroke-miterlimit:10;" d="M253.067,298.359"/>
	<g>
		<path style="fill:none;stroke:#AA75B2;stroke-width:50;stroke-miterlimit:10;" d="M88.498,562.295
			c0.114-3.749,0.267-7.502,0.457-11.265c8.542-168.869,91.838-316.242,216.231-411.697"/>
		<path style="fill:none;stroke:#AA75B2;stroke-width:50;stroke-miterlimit:10;" d="M171.553,871.276
			c-49.794-80.037-79.65-173.455-83.002-272.989"/>
		<path style="fill:none;stroke:#5468B0;stroke-width:50;stroke-miterlimit:10;" d="M568.868,1128.162
			c-144.026-19.082-269.508-92.983-356.112-199.21"/>
		<path style="fill:none;stroke:#5468B0;stroke-width:50;stroke-miterlimit:10;" d="M889.857,1074.708
			c-82.615,41.364-176.732,62.598-275.595,57.597c-2.746-0.138-5.485-0.297-8.22-0.476"/>
		<path style="fill:none;stroke:#27AAE1;stroke-width:50;stroke-miterlimit:10;" d="M981.67,141.108
			c-47.003-36.498-100.127-65.64-157.721-85.602"/>
		<path style="fill:none;stroke:#27AAE1;stroke-width:50;stroke-miterlimit:10;" d="M1195.539,606.997"/>
		<path style="fill:none;stroke:#27AAE1;stroke-width:50;stroke-miterlimit:10;" d="M1171.515,743.148"/>
		<path style="fill:none;stroke:#27AAE1;stroke-width:50;stroke-miterlimit:10;" d="M375.437,93.407
			c87.102-47.965,188.189-73.078,294.795-67.687c40.924,2.07,80.585,8.531,118.552,18.903"/>
	</g>
	<g>
		<g>
			<path style="fill:none;stroke:#8DC63F;stroke-width:50;stroke-miterlimit:10;" d="M932.672,243.977
				c-95.799-82.734-225.922-124.492-360.816-103.638c-0.777,0.12-1.554,0.243-2.329,0.366"/>
			<path style="fill:none;stroke:#8DC63F;stroke-width:50;stroke-miterlimit:10;" d="M332.188,257.991
				c55.131-52.449,124.104-91.324,202.244-110.247"/>
			<path style="fill:none;stroke:#F7941E;stroke-width:50;stroke-miterlimit:10;" d="M283.906,852.794
				c-43.588-57.308-73.929-125.99-85.703-202.146c-0.625-4.05-1.195-8.095-1.708-12.135"/>
			<path style="fill:none;stroke:#F7941E;stroke-width:50;stroke-miterlimit:10;" d="M293.325,299.994
				c-67.429,82.895-105.099,189.537-99.972,302.124"/>
		</g>
		<g>
			<path style="fill:none;stroke:#EF4136;stroke-width:50;stroke-miterlimit:10;" d="M937.044,916.164
				c-0.82,0.721-1.645,1.438-2.468,2.152c-49.108,42.496-106.311,73.14-167.127,90.896c-1.682,0.491-3.365,0.973-5.052,1.443"/>
			<path style="fill:none;stroke:#EF4136;stroke-width:50;stroke-miterlimit:10;" d="M318.413,888.874
				c25.259,26.415,54.189,50.141,86.609,70.392c90.037,56.239,192.341,76.529,290.125,64.754c2.166-0.261,4.33-0.537,6.492-0.83
				c5.716-0.773,11.414-1.655,17.092-2.647c5.687-0.993,11.353-2.095,16.995-3.306c0.712-0.152,1.424-0.307,2.135-0.463"/>
		</g>
	</g>
</g>
<g>
</g>
<g>
</g>
<g>
</g>
<g>
</g>
<g>
</g>
<g>
</g>
</svg>
